<?xml version="1.0" standalone="no"?>
<!DOCTYPE svg PUBLIC "-//W3C//DTD SVG 20010904//EN"
 "http://www.w3.org/TR/2001/REC-SVG-20010904/DTD/svg10.dtd">
<svg version="1.0" xmlns="http://www.w3.org/2000/svg"
 width="160.000000pt" height="178.000000pt" viewBox="0 0 160.000000 178.000000"
 preserveAspectRatio="xMidYMid meet">

<g transform="translate(0.000000,178.000000) scale(0.100000,-0.100000)"
fill="#000000" stroke="none">
<path d="M318 1619 l-318 -159 0 -490 0 -490 25 -12 c15 -6 34 -29 44 -53 33
-74 84 -104 141 -82 10 4 22 -5 35 -25 11 -17 32 -41 48 -52 24 -18 31 -19 60
-8 25 10 33 10 36 0 8 -24 79 -88 97 -88 11 0 33 8 49 19 l30 18 198 -99 197
-98 120 60 c98 49 124 58 140 50 15 -8 29 -6 60 10 l40 20 38 -20 c20 -12 49
-28 64 -38 21 -13 31 -14 52 -4 35 16 35 54 0 81 -32 25 -51 26 -74 6 -16 -14
-21 -14 -53 1 -30 15 -33 19 -22 31 12 12 19 12 44 -2 38 -19 40 -19 34 4 -4
17 12 28 96 70 l101 51 0 490 0 490 -480 240 c-264 132 -481 240 -482 239 -2
0 -146 -72 -320 -160z m347 137 c18 -13 18 -14 -3 -25 -17 -9 -27 -9 -44 0
-21 11 -21 12 -3 25 10 8 22 14 25 14 3 0 15 -6 25 -14z m-55 -31 c27 -14 33
-14 60 0 29 15 31 14 472 -206 244 -122 445 -223 448 -226 3 -2 -3 -9 -12 -14
-15 -9 -17 -45 -18 -409 0 -220 -3 -406 -6 -413 -6 -17 -177 -101 -193 -96 -7
3 33 27 88 54 l101 49 2 365 c2 202 1 380 -1 398 -2 24 -10 34 -32 43 -34 15
-37 26 -8 35 11 4 18 9 16 12 -8 7 -47 -16 -47 -28 0 -5 11 -14 24 -20 22 -10
23 -16 23 -99 l-1 -88 -23 11 c-19 8 -27 7 -40 -6 -14 -13 -14 -21 -5 -42 12
-27 40 -33 60 -13 9 9 12 -35 12 -198 l0 -209 -255 -128 c-140 -70 -257 -127
-260 -127 -3 0 -5 146 -5 323 l0 324 -25 11 c-19 9 -31 9 -50 0 l-25 -11 -2
-326 -3 -326 -2 298 -3 297 -160 80 c-91 45 -166 77 -175 74 -13 -5 -15 -42
-15 -280 0 -151 4 -274 8 -274 5 0 17 -7 28 -16 18 -14 18 -15 -5 -3 -33 16
-78 22 -85 11 -3 -5 8 -15 24 -22 29 -12 30 -15 30 -76 0 -35 -2 -64 -5 -64
-3 0 -111 53 -240 117 l-235 118 0 62 c0 35 2 63 5 63 3 0 46 -21 96 -46 50
-25 94 -43 96 -40 12 11 -18 32 -106 76 l-91 44 0 316 0 317 25 11 c14 6 25
16 25 21 0 12 -39 35 -47 28 -2 -3 5 -8 16 -12 29 -9 26 -20 -9 -35 l-29 -12
-3 -282 c-2 -154 -2 -333 0 -396 l3 -116 250 -124 c212 -106 271 -140 244
-140 -18 0 -496 248 -500 259 -3 8 -6 194 -5 412 0 369 -1 399 -17 408 -10 5
-16 12 -13 14 5 5 562 285 568 286 2 1 16 -6 32 -14z m120 -700 l150 -75 -2
-393 -3 -392 -2 390 -3 390 -153 77 c-83 42 -149 77 -144 77 4 1 75 -33 157
-74z m760 45 c0 -5 -4 -10 -10 -10 -5 0 -10 5 -10 10 0 6 5 10 10 10 6 0 10
-4 10 -10z m-770 -80 l120 -60 0 -265 0 -265 -100 50 c-87 44 -100 53 -100 75
0 17 -8 29 -25 37 l-25 11 0 239 c0 131 2 238 5 238 3 0 59 -27 125 -60z m266
25 c18 -14 18 -16 1 -29 -16 -13 -17 -44 -17 -445 0 -238 1 -435 4 -439 2 -4
0 -27 -4 -52 l-8 -45 0 50 c0 28 0 243 -1 480 l-1 430 -23 18 c-22 17 -22 18
-3 32 24 19 28 19 52 0z m544 -480 c0 -30 -4 -55 -10 -55 -5 0 -10 -6 -10 -13
0 -17 -463 -247 -479 -238 -7 4 -14 30 -17 57 l-4 49 252 127 c139 70 256 127
261 127 4 1 7 -24 7 -54z m-810 -105 l120 -60 -2 -93 c-1 -50 -3 -83 -5 -71
-3 15 -36 36 -123 79 -66 32 -118 61 -116 63 2 2 54 -22 116 -53 62 -31 114
-55 116 -53 2 2 -51 31 -116 63 l-120 59 0 63 c0 35 2 63 5 63 3 0 59 -27 125
-60z m-556 18 c20 -28 12 -36 -14 -13 -16 14 -22 15 -35 5 -12 -10 -15 -10
-15 2 0 35 42 38 64 6z m-19 -18 c3 -5 0 -10 -7 -10 -9 0 -10 -2 -2 -8 9 -5 8
-10 -2 -19 -17 -16 -30 2 -15 21 6 7 8 16 4 19 -3 4 -1 7 5 7 6 0 14 -4 17
-10z m30 -50 c-3 -5 -12 -10 -18 -10 -7 0 -6 4 3 10 19 12 23 12 15 0z m149
-12 c20 -28 12 -36 -14 -13 -16 14 -22 15 -35 5 -12 -10 -15 -10 -15 2 0 35
42 38 64 6z m-19 -18 c3 -5 0 -10 -7 -10 -9 0 -10 -2 -2 -8 9 -5 8 -10 -2 -19
-17 -16 -30 2 -15 21 6 7 8 16 4 19 -3 4 -1 7 5 7 6 0 14 -4 17 -10z m1060 -2
c31 -14 32 -22 1 -36 -20 -9 -26 -20 -29 -54 l-4 -43 -1 46 c-1 32 -7 49 -18
53 -23 9 -37 -3 -24 -19 9 -11 5 -17 -19 -29 -29 -15 -30 -19 -34 -89 l-3 -72
-2 76 c-2 59 -6 78 -17 83 -9 3 -57 -15 -107 -40 -49 -25 -93 -43 -96 -40 -3
3 -3 8 -1 10 3 3 320 164 326 165 1 1 14 -4 28 -11z m-458 -105 c-2 -21 -4 -6
-4 32 0 39 2 55 4 38 2 -18 2 -50 0 -70z m-355 78 c2 -5 73 -44 159 -87 149
-76 155 -80 137 -96 -12 -12 -18 -14 -18 -5 0 7 -72 48 -160 92 -88 44 -160
83 -160 86 0 7 17 16 32 18 3 1 8 -3 10 -8z m-217 -21 c-3 -5 -12 -10 -18 -10
-7 0 -6 4 3 10 19 12 23 12 15 0z m149 -12 c20 -28 12 -36 -14 -13 -16 14 -22
15 -35 5 -12 -10 -15 -10 -15 2 0 35 42 38 64 6z m-19 -18 c3 -5 0 -10 -7 -10
-9 0 -10 -2 -2 -8 9 -5 8 -10 -2 -19 -17 -16 -30 2 -15 21 6 7 8 16 4 19 -3 4
-1 7 5 7 6 0 14 -4 17 -10z m30 -50 c-3 -5 -12 -10 -18 -10 -7 0 -6 4 3 10 19
12 23 12 15 0z"/>
<path d="M467 1629 c-151 -76 -164 -90 -152 -161 7 -38 9 -40 146 -108 76 -39
146 -70 154 -70 8 0 78 31 154 70 137 68 139 70 146 108 12 72 -1 85 -155 162
-77 38 -143 70 -147 69 -5 0 -70 -31 -146 -70z m293 -9 c134 -67 139 -71 146
-105 3 -20 5 -37 3 -39 -2 -2 -69 -36 -149 -76 l-144 -72 -148 73 c-154 77
-159 81 -139 133 6 16 258 154 284 155 4 1 70 -30 147 -69z m0 -245 c71 36
133 65 137 64 15 -1 -262 -138 -279 -138 -27 -1 -288 132 -288 146 0 8 61 -18
150 -62 l150 -75 130 65z"/>
<path d="M1158 1380 l-56 -29 -58 19 c-31 11 -61 20 -67 20 -9 0 -6 -25 8 -75
5 -17 -2 -25 -39 -43 -25 -12 -46 -26 -46 -32 0 -6 30 -10 73 -10 l73 0 32
-66 c18 -37 37 -63 41 -58 5 5 16 33 26 62 l17 52 73 0 c41 0 77 4 80 10 3 5
-23 24 -57 41 -35 17 -64 33 -66 34 -2 2 6 21 17 44 22 42 26 61 14 61 -5 -1
-34 -14 -65 -30z m43 -29 c-12 -22 -21 -43 -21 -45 0 -3 30 -21 68 -40 l67
-35 -81 -1 -81 0 -18 -61 -19 -61 -33 66 -33 66 -73 0 -72 1 48 25 c52 27 52
27 36 73 -6 18 -9 34 -7 37 3 2 31 -5 62 -16 l58 -19 56 28 c31 16 58 28 60
26 2 -2 -6 -21 -17 -44z"/>
<path d="M100 1246 c-27 -33 18 -72 48 -42 13 13 14 20 6 34 -15 23 -38 26
-54 8z m30 -16 c0 -5 -4 -10 -10 -10 -5 0 -10 5 -10 10 0 6 5 10 10 10 6 0 10
-4 10 -10z"/>
<path d="M122 1148 c-8 -8 -12 -56 -12 -149 0 -160 -8 -148 129 -214 115 -55
115 -55 119 120 2 97 -1 142 -10 152 -14 17 -181 103 -201 103 -7 0 -18 -5
-25 -12z m98 -65 c-2 -19 -79 -156 -80 -141 0 22 61 148 72 148 4 0 8 -3 8 -7z
m84 -42 c10 -16 -6 -41 -35 -57 -34 -17 -34 -16 -12 31 16 34 36 45 47 26z
m-24 -71 c0 -5 -13 -16 -30 -25 -38 -19 -40 -1 -2 19 33 18 32 18 32 6z m-29
-49 c-7 -5 -12 -11 -11 -15 5 -18 -24 -67 -38 -64 -28 5 -24 27 10 48 22 15
26 20 11 15 -31 -9 -29 1 5 19 27 14 48 12 23 -3z"/>
<path d="M1424 904 c-18 -14 -18 -15 4 -4 12 6 22 13 22 15 0 8 -5 6 -26 -11z"/>
<path d="M1060 885 c-17 -21 2 -65 28 -65 41 0 57 51 23 70 -27 14 -36 13 -51
-5z m30 -15 c0 -5 -4 -10 -10 -10 -5 0 -10 5 -10 10 0 6 5 10 10 10 6 0 10 -4
10 -10z"/>
<path d="M1273 818 c-4 -7 -15 -33 -24 -58 -12 -37 -24 -49 -62 -70 -55 -29
-58 -43 -17 -60 29 -12 30 -14 24 -66 -8 -66 6 -71 56 -19 30 31 39 35 87 35
58 0 61 4 42 58 -9 25 -6 38 15 81 14 28 26 55 26 61 0 14 -26 12 -60 -5 -29
-15 -30 -14 -45 14 -18 37 -31 45 -42 29z"/>
<path d="M375 729 c-10 -19 -19 -35 -20 -37 -1 -2 -19 5 -39 14 -19 10 -38 15
-42 12 -3 -3 6 -29 21 -58 22 -44 25 -56 16 -82 -16 -46 -15 -48 37 -48 42 0
53 -5 82 -35 19 -19 38 -35 43 -35 6 0 7 21 3 50 -6 47 -6 50 24 65 36 19 34
26 -19 50 -34 15 -43 25 -57 69 -22 69 -29 74 -49 35z"/>
<path d="M100 686 c-27 -33 18 -72 48 -42 13 13 14 20 6 34 -15 23 -38 26 -54
8z m30 -16 c0 -5 -4 -10 -10 -10 -5 0 -10 5 -10 10 0 6 5 10 10 10 6 0 10 -4
10 -10z"/>
<path d="M1470 660 c0 -5 5 -10 10 -10 6 0 10 5 10 10 0 6 -4 10 -10 10 -5 0
-10 -4 -10 -10z"/>
<path d="M1050 610 c0 -5 5 -10 10 -10 6 0 10 5 10 10 0 6 -4 10 -10 10 -5 0
-10 -4 -10 -10z"/>
<path d="M622 878 c-8 -8 -12 -56 -12 -149 0 -158 -4 -150 109 -204 92 -44 95
-40 99 130 2 97 -1 142 -10 152 -14 17 -142 83 -161 83 -7 0 -18 -5 -25 -12z
m118 -73 c0 -4 -7 -19 -15 -35 -22 -42 -38 -37 -18 5 14 30 33 47 33 30z m46
-103 c-12 -11 -18 7 -10 30 l8 23 4 -23 c2 -13 1 -26 -2 -30z m-86 21 c-1 -5
-12 -28 -25 -53 -27 -51 -34 -30 -8 25 15 31 34 47 33 28z m90 -44 c0 -20 -55
-119 -66 -119 -26 0 -24 21 6 79 21 43 34 59 45 55 8 -4 15 -10 15 -15z"/>
</g>
</svg>
